<?xml version="1.0" encoding="UTF-8" standalone="no"?>
<svg xmlns="http://www.w3.org/2000/svg" viewBox="0 0 100 65">
    <g stroke-width="2" stroke="#000">
        <path d="M50,10L25,25"/>
        <path d="M50,10L75,25"/>
        <path d="M25,25L12.5,40"/>
        <path d="M25,25L37.5,40"/>
        <path d="M75,25L87.5,40"/>
        <path d="M37.5,40L31.25,55"/>
        <path d="M37.5,40L43.75,55"/>
        <path d="M87.5,40L81.25,55"/>
    </g>
    <g fill="#fff" stroke-width="1" stroke="#000">
        <circle cx="50" cy="10" r="5" />
        <circle cx="25" cy="25" r="5" />
        <circle cx="75" cy="25" r="5" />
        <circle cx="12.5" cy="40" r="5" />
        <circle cx="37.5" cy="40" r="5" />
        <circle cx="87.5" cy="40" r="5" />
        <circle cx="31.25" cy="55" r="5" />
        <circle cx="43.75" cy="55" r="5" />
        <circle cx="81.25" cy="55" r="5" />
    </g>
    <g fill="#000" text-anchor="middle" style="font-size: 6px; font-family: 'DejaVu Sans';">
        <text x="50" y="12">2</text>
        <text x="25" y="27">7</text>
        <text x="75" y="27">5</text>
        <text x="12.5" y="42">2</text>
        <text x="37.5" y="42">6</text>
        <text x="87.5" y="42">9</text>
        <text x="31.25" y="57">5</text>
        <text x="43.75" y="57">11</text>
        <text x="81.25" y="57">4</text>
    </g>
</svg>